<svg viewBox="0 0 320 320" xmlns="http://www.w3.org/2000/svg" role="img" aria-labelledby="emblemTitle"><title id="emblemTitle">From rail systems to neural networks — 25 years of engineering</title>
<defs>
  <linearGradient id="railToAI" x1="0%" y1="0%" x2="100%" y2="0%">
    <stop offset="0%" stop-color="#A8C5D8"/>
    <stop offset="55%" stop-color="#A8C5D8"/>
    <stop offset="100%" stop-color="#D4915A"/>
  </linearGradient>
</defs>
<rect x="0" y="0" width="320" height="320" fill="#0D2438"/><line x1="0" y1="0" x2="0" y2="320" stroke="#A8C5D8" stroke-opacity="0.06" stroke-width="1"/><line x1="20" y1="0" x2="20" y2="320" stroke="#A8C5D8" stroke-opacity="0.06" stroke-width="1"/><line x1="40" y1="0" x2="40" y2="320" stroke="#A8C5D8" stroke-opacity="0.06" stroke-width="1"/><line x1="60" y1="0" x2="60" y2="320" stroke="#A8C5D8" stroke-opacity="0.06" stroke-width="1"/><line x1="80" y1="0" x2="80" y2="320" stroke="#A8C5D8" stroke-opacity="0.06" stroke-width="1"/><line x1="100" y1="0" x2="100" y2="320" stroke="#A8C5D8" stroke-opacity="0.06" stroke-width="1"/><line x1="120" y1="0" x2="120" y2="320" stroke="#A8C5D8" stroke-opacity="0.06" stroke-width="1"/><line x1="140" y1="0" x2="140" y2="320" stroke="#A8C5D8" stroke-opacity="0.06" stroke-width="1"/><line x1="160" y1="0" x2="160" y2="320" stroke="#A8C5D8" stroke-opacity="0.06" stroke-width="1"/><line x1="180" y1="0" x2="180" y2="320" stroke="#A8C5D8" stroke-opacity="0.06" stroke-width="1"/><line x1="200" y1="0" x2="200" y2="320" stroke="#A8C5D8" stroke-opacity="0.06" stroke-width="1"/><line x1="220" y1="0" x2="220" y2="320" stroke="#A8C5D8" stroke-opacity="0.06" stroke-width="1"/><line x1="240" y1="0" x2="240" y2="320" stroke="#A8C5D8" stroke-opacity="0.06" stroke-width="1"/><line x1="260" y1="0" x2="260" y2="320" stroke="#A8C5D8" stroke-opacity="0.06" stroke-width="1"/><line x1="280" y1="0" x2="280" y2="320" stroke="#A8C5D8" stroke-opacity="0.06" stroke-width="1"/><line x1="300" y1="0" x2="300" y2="320" stroke="#A8C5D8" stroke-opacity="0.06" stroke-width="1"/><line x1="320" y1="0" x2="320" y2="320" stroke="#A8C5D8" stroke-opacity="0.06" stroke-width="1"/><line x1="0" y1="0" x2="320" y2="0" stroke="#A8C5D8" stroke-opacity="0.06" stroke-width="1"/><line x1="0" y1="20" x2="320" y2="20" stroke="#A8C5D8" stroke-opacity="0.06" stroke-width="1"/><line x1="0" y1="40" x2="320" y2="40" stroke="#A8C5D8" stroke-opacity="0.06" stroke-width="1"/><line x1="0" y1="60" x2="320" y2="60" stroke="#A8C5D8" stroke-opacity="0.06" stroke-width="1"/><line x1="0" y1="80" x2="320" y2="80" stroke="#A8C5D8" stroke-opacity="0.06" stroke-width="1"/><line x1="0" y1="100" x2="320" y2="100" stroke="#A8C5D8" stroke-opacity="0.06" stroke-width="1"/><line x1="0" y1="120" x2="320" y2="120" stroke="#A8C5D8" stroke-opacity="0.06" stroke-width="1"/><line x1="0" y1="140" x2="320" y2="140" stroke="#A8C5D8" stroke-opacity="0.06" stroke-width="1"/><line x1="0" y1="160" x2="320" y2="160" stroke="#A8C5D8" stroke-opacity="0.06" stroke-width="1"/><line x1="0" y1="180" x2="320" y2="180" stroke="#A8C5D8" stroke-opacity="0.06" stroke-width="1"/><line x1="0" y1="200" x2="320" y2="200" stroke="#A8C5D8" stroke-opacity="0.06" stroke-width="1"/><line x1="0" y1="220" x2="320" y2="220" stroke="#A8C5D8" stroke-opacity="0.06" stroke-width="1"/><line x1="0" y1="240" x2="320" y2="240" stroke="#A8C5D8" stroke-opacity="0.06" stroke-width="1"/><line x1="0" y1="260" x2="320" y2="260" stroke="#A8C5D8" stroke-opacity="0.06" stroke-width="1"/><line x1="0" y1="280" x2="320" y2="280" stroke="#A8C5D8" stroke-opacity="0.06" stroke-width="1"/><line x1="0" y1="300" x2="320" y2="300" stroke="#A8C5D8" stroke-opacity="0.06" stroke-width="1"/><line x1="0" y1="320" x2="320" y2="320" stroke="#A8C5D8" stroke-opacity="0.06" stroke-width="1"/><path d="M 20.0 150.0 L 24.0 149.9 L 28.0 149.6 L 32.0 149.2 L 36.0 148.6 L 40.0 147.9 L 44.0 147.0 L 48.0 146.0 L 52.0 144.9 L 56.0 143.6 L 60.0 142.3 L 64.0 140.9 L 68.0 139.3 L 72.0 137.7 L 76.0 136.0 L 80.0 134.3 L 84.0 132.5 L 88.0 130.6 L 92.0 128.8 L 96.0 126.9 L 100.0 124.9 L 104.0 123.0 L 108.0 121.0 L 112.0 119.1 L 116.0 117.2 L 120.0 115.3 L 124.0 113.4 L 128.0 111.6 L 132.0 109.8 L 136.0 108.1 L 140.0 106.5 L 144.0 104.9 L 148.0 103.4 L 152.0 102.0 L 156.0 100.7 L 160.0 99.5 L 164.0 98.5 L 168.0 97.5 L 172.0 96.7 L 176.0 96.1 L 180.0 95.5 L 184.0 95.2 L 188.0 95.0 " fill="none" stroke="url(#railToAI)" stroke-width="2.5"/><path d="M 20.0 178.0 L 24.0 177.9 L 28.0 177.6 L 32.0 177.2 L 36.0 176.6 L 40.0 175.9 L 44.0 175.0 L 48.0 174.0 L 52.0 172.9 L 56.0 171.6 L 60.0 170.3 L 64.0 168.9 L 68.0 167.3 L 72.0 165.7 L 76.0 164.0 L 80.0 162.3 L 84.0 160.5 L 88.0 158.6 L 92.0 156.8 L 96.0 154.9 L 100.0 152.9 L 104.0 151.0 L 108.0 149.0 L 112.0 147.1 L 116.0 145.2 L 120.0 143.3 L 124.0 141.4 L 128.0 139.6 L 132.0 137.8 L 136.0 136.1 L 140.0 134.5 L 144.0 132.9 L 148.0 131.4 L 152.0 130.0 L 156.0 128.7 L 160.0 127.5 L 164.0 126.5 L 168.0 125.5 L 172.0 124.7 L 176.0 124.1 L 180.0 123.5 L 184.0 123.2 L 188.0 123.0 " fill="none" stroke="url(#railToAI)" stroke-width="2.5"/><line x1="24" y1="143.9" x2="24" y2="183.9" stroke="#A8C5D8" stroke-opacity="0.5" stroke-width="2"/><line x1="36" y1="142.6" x2="36" y2="182.6" stroke="#A8C5D8" stroke-opacity="0.5" stroke-width="2"/><line x1="48" y1="140.0" x2="48" y2="180.0" stroke="#A8C5D8" stroke-opacity="0.5" stroke-width="2"/><line x1="60" y1="136.3" x2="60" y2="176.3" stroke="#A8C5D8" stroke-opacity="0.5" stroke-width="2"/><line x1="72" y1="131.7" x2="72" y2="171.7" stroke="#A8C5D8" stroke-opacity="0.5" stroke-width="2"/><line x1="84" y1="126.5" x2="84" y2="166.5" stroke="#A8C5D8" stroke-opacity="0.5" stroke-width="2"/><line x1="96" y1="120.9" x2="96" y2="160.9" stroke="#A8C5D8" stroke-opacity="0.5" stroke-width="2"/><line x1="108" y1="115.0" x2="108" y2="155.0" stroke="#A8C5D8" stroke-opacity="0.5" stroke-width="2"/><line x1="120" y1="109.3" x2="120" y2="149.3" stroke="#A8C5D8" stroke-opacity="0.5" stroke-width="2"/><line x1="190" y1="105.0" x2="230" y2="94.0" stroke="#D4915A" stroke-opacity="0.35" stroke-width="1"/><line x1="190" y1="105.0" x2="230" y2="138.0" stroke="#D4915A" stroke-opacity="0.35" stroke-width="1"/><line x1="190" y1="105.0" x2="230" y2="182.0" stroke="#D4915A" stroke-opacity="0.35" stroke-width="1"/><line x1="190" y1="105.0" x2="230" y2="226.0" stroke="#D4915A" stroke-opacity="0.35" stroke-width="1"/><line x1="190" y1="160.0" x2="230" y2="94.0" stroke="#D4915A" stroke-opacity="0.35" stroke-width="1"/><line x1="190" y1="160.0" x2="230" y2="138.0" stroke="#D4915A" stroke-opacity="0.35" stroke-width="1"/><line x1="190" y1="160.0" x2="230" y2="182.0" stroke="#D4915A" stroke-opacity="0.35" stroke-width="1"/><line x1="190" y1="160.0" x2="230" y2="226.0" stroke="#D4915A" stroke-opacity="0.35" stroke-width="1"/><line x1="190" y1="215.0" x2="230" y2="94.0" stroke="#D4915A" stroke-opacity="0.35" stroke-width="1"/><line x1="190" y1="215.0" x2="230" y2="138.0" stroke="#D4915A" stroke-opacity="0.35" stroke-width="1"/><line x1="190" y1="215.0" x2="230" y2="182.0" stroke="#D4915A" stroke-opacity="0.35" stroke-width="1"/><line x1="190" y1="215.0" x2="230" y2="226.0" stroke="#D4915A" stroke-opacity="0.35" stroke-width="1"/><line x1="230" y1="94.0" x2="270" y2="123.3" stroke="#D4915A" stroke-opacity="0.35" stroke-width="1"/><line x1="230" y1="94.0" x2="270" y2="196.7" stroke="#D4915A" stroke-opacity="0.35" stroke-width="1"/><line x1="230" y1="138.0" x2="270" y2="123.3" stroke="#D4915A" stroke-opacity="0.35" stroke-width="1"/><line x1="230" y1="138.0" x2="270" y2="196.7" stroke="#D4915A" stroke-opacity="0.35" stroke-width="1"/><line x1="230" y1="182.0" x2="270" y2="123.3" stroke="#D4915A" stroke-opacity="0.35" stroke-width="1"/><line x1="230" y1="182.0" x2="270" y2="196.7" stroke="#D4915A" stroke-opacity="0.35" stroke-width="1"/><line x1="230" y1="226.0" x2="270" y2="123.3" stroke="#D4915A" stroke-opacity="0.35" stroke-width="1"/><line x1="230" y1="226.0" x2="270" y2="196.7" stroke="#D4915A" stroke-opacity="0.35" stroke-width="1"/><line x1="188.0" y1="95.0" x2="190" y2="105.0" stroke="#D4915A" stroke-opacity="0.45" stroke-width="1.2"/><line x1="188.0" y1="123.0" x2="190" y2="105.0" stroke="#D4915A" stroke-opacity="0.45" stroke-width="1.2"/><line x1="188.0" y1="95.0" x2="190" y2="160.0" stroke="#D4915A" stroke-opacity="0.45" stroke-width="1.2"/><line x1="188.0" y1="123.0" x2="190" y2="160.0" stroke="#D4915A" stroke-opacity="0.45" stroke-width="1.2"/><line x1="188.0" y1="95.0" x2="190" y2="215.0" stroke="#D4915A" stroke-opacity="0.45" stroke-width="1.2"/><line x1="188.0" y1="123.0" x2="190" y2="215.0" stroke="#D4915A" stroke-opacity="0.45" stroke-width="1.2"/><circle cx="190" cy="105.0" r="6" fill="#0D2438" stroke="#D4915A" stroke-width="2"/><circle cx="190" cy="160.0" r="6" fill="#0D2438" stroke="#D4915A" stroke-width="2"/><circle cx="190" cy="215.0" r="6" fill="#0D2438" stroke="#D4915A" stroke-width="2"/><circle cx="230" cy="94.0" r="5.5" fill="#0D2438" stroke="#D4915A" stroke-width="2"/><circle cx="230" cy="138.0" r="5.5" fill="#0D2438" stroke="#D4915A" stroke-width="2"/><circle cx="230" cy="182.0" r="5.5" fill="#0D2438" stroke="#D4915A" stroke-width="2"/><circle cx="230" cy="226.0" r="5.5" fill="#0D2438" stroke="#D4915A" stroke-width="2"/><circle cx="270" cy="123.3" r="6" fill="#0D2438" stroke="#D4915A" stroke-width="2"/><circle cx="270" cy="196.7" r="6" fill="#0D2438" stroke="#D4915A" stroke-width="2"/><text x="14" y="300" font-family="IBM Plex Mono, monospace" font-size="9" fill="#A8C5D8" fill-opacity="0.55">SYS.RAIL — 2010</text><text x="196" y="300" font-family="IBM Plex Mono, monospace" font-size="9" fill="#D4915A" fill-opacity="0.75">NET.AI — 2019+</text></svg>